<svg xmlns="http://www.w3.org/2000/svg" viewBox="0 0 612.077 612.077" width="512" height="512"><path d="M306.037.001C136.997.001 0 136.999 0 306.039s137.813 306.037 306.037 306.037 306.037-136.997 306.037-306.037C612.816 136.999 475.077.001 306.037.001zm0 582.331c-152.203 0-276.368-124.165-276.368-276.368S153.834 29.596 306.037 29.596s276.368 124.165 276.368 276.368-123.349 276.368-276.368 276.368zm156.208-276.368c0 8.011-6.379 14.39-14.39 14.39H213.099l83.296 83.296c5.637 5.637 5.637 15.205 0 20.843-3.189 3.189-6.379 4.005-10.384 4.005-4.005 0-7.195-1.632-10.384-4.005l-108.96-108.07c-.816-.816-1.632-1.632-1.632-2.374l-.816-.816c0-.816-.816-.816-.816-1.632s0-.816-.816-1.632v-1.632-5.637-1.632c0-.816 0-.816.816-1.632 0-.816.816-.816.816-1.632 0 0 0-.816.816-.816.816-.816.816-1.632 1.632-2.374L276.442 184.84c5.637-5.637 15.205-5.637 20.843 0 5.637 5.637 5.637 15.205 0 20.843l-84.186 85.076h234.683c8.01 0 14.463 7.195 14.463 15.205z" fill="#FFF"/></svg>